<?xml version="1.0" encoding="utf-8"?>
<!-- Generator: Adobe Illustrator 25.0.0, SVG Export Plug-In . SVG Version: 6.00 Build 0)  -->
<svg version="1.1" id="Calque_1" xmlns:v="https://vecta.io/nano"
	 xmlns="http://www.w3.org/2000/svg" xmlns:xlink="http://www.w3.org/1999/xlink" x="0px" y="0px" viewBox="0 0 193 230"
	 style="enable-background:new 0 0 193 230;" xml:space="preserve">
<style type="text/css">
	.st0{opacity:0.1;}
	.st1{fill:#09A76D;}
	.st2{fill:#02905D;}
	.st3{fill:#FAC600;}
	.st4{fill:#E8B800;}
	.st5{fill:#FEDF30;}
	.st6{fill:#FFF5C6;}
	.st7{fill:#FEF0AE;}
	.st8{fill:#FFFFFF;}
</style>
<g class="st0">
	<g>
		<path class="st1" d="M160,39.7c-0.3,0-0.6,0-1,0c-0.3,0.3-0.6,0.6-0.9,0.9c-3.2,3.2-6.9,5.6-10.8,7.2c10,7.4,17.4,18.1,20.5,30.5
			c10.1-2.5,18.5-9.5,22.6-18.9C185.4,47.9,173.7,39.7,160,39.7z"/>
		<path class="st2" d="M160,39.7c-0.3,0-0.6,0-1,0c-0.3,0.3-0.6,0.6-0.9,0.9c-3.2,3.2-6.9,5.6-10.8,7.2c1.1,0.8,2.2,1.7,3.3,2.6
			c2.7-0.7,5.4-1,8.3-1c12,0,22.5,6.3,28.4,15.8c1.2-1.8,2.3-3.7,3.2-5.7C185.4,47.9,173.7,39.7,160,39.7L160,39.7z"/>
	</g>
	<g>
		<path class="st1" d="M124.6,32c1.1,2.2,2,4.4,2.8,6.7c7.3,1.7,14.1,4.8,19.9,9.1c3.9-1.6,7.6-4,10.8-7.2
			C167.8,31,170.3,17,165.8,5c-11.9-4.6-26-2.1-35.6,7.6c-2.2,2.2-4,4.6-5.5,7.2C125.7,23.5,125.7,27.7,124.6,32z"/>
		<path class="st2" d="M124.6,32c1.1,2.2,2,4.4,2.8,6.7c0.3,0.1,0.6,0.1,0.9,0.2c1-6.8,4.1-13.4,9.4-18.7
			c8.1-8.1,19.2-11.1,29.6-9.2c-0.4-2-0.9-4.1-1.7-6c-11.9-4.6-26-2.1-35.6,7.6c-2.2,2.2-4,4.6-5.5,7.2
			C125.7,23.5,125.7,27.7,124.6,32L124.6,32z"/>
	</g>
	<path class="st3" d="M61.3,91.5c0-29.9,24.2-54.1,54.1-54.1c4.1,0,8.2,0.5,12,1.3c-0.8-2.3-1.7-4.6-2.8-6.7
		c1.8-7.5,0.6-14.6-4.1-19.3c-4.7-4.7-11.8-5.9-19.3-4.1C78-2.9,46.8,2.9,24.8,24.8C2.8,46.8-2.9,78,8.7,101.3
		c-1.8,7.5-0.6,14.6,4.1,19.3s11.8,5.9,19.3,4.1c13,6.5,28.5,7.5,43.5,3.4C66.7,118.4,61.3,105.6,61.3,91.5L61.3,91.5z"/>
	<g>
		<g>
			<path class="st4" d="M28.4,124.5c-4.7-4.7-5.9-11.8-4.1-19.3c-11.6-23.3-5.8-54.5,16.1-76.5C56.8,12.4,78.2,5,97.6,7
				c-22.8-9.3-52-3-72.8,17.8C2.8,46.8-2.9,78,8.7,101.3c-1.8,7.5-0.6,14.6,4.1,19.3c4.1,4.1,10,5.5,16.5,4.6
				C28.9,125,28.7,124.7,28.4,124.5z"/>
		</g>
	</g>
	<g>
		<path class="st5" d="M115.4,37.4c-29.9,0-54.1,24.2-54.1,54.1c0,27.8,20.9,50.7,47.9,53.7c-0.6-0.9-1.4-1.8-2.4-2.4
			c-3.7-2.3-6.4-5.9-7.5-10.2c5,2,10.5,3.1,16.2,3.1c5.7,0,11.2-1.1,16.2-3.1c-1.1,4.3-3.8,7.9-7.4,10.2c-1,0.6-1.8,1.5-2.5,2.4
			c26.9-3.1,47.8-26,47.8-53.7C169.5,61.7,145.3,37.4,115.4,37.4L115.4,37.4z"/>
		<path class="st6" d="M124.2,142.9c3.7-2.3,6.4-5.9,7.4-10.2c-5,2-10.4,3.1-16.2,3.1c-5.7,0-11.2-1.1-16.2-3.1
			c1.1,4.3,3.8,8,7.5,10.2c3.4,2.1,4.6,6.4,2.9,9.9l-4.8,10.4c-3.6,7.7,2.1,16.6,10.6,16.6s14.2-8.8,10.6-16.6l-4.8-10.4
			C119.5,149.3,120.8,145,124.2,142.9L124.2,142.9z"/>
		<path class="st7" d="M112.6,163.3l4.8-10.4c1.7-3.6,0.4-7.9-2.9-9.9c-3-1.8-5.3-4.5-6.7-7.8c-3-0.5-5.8-1.4-8.5-2.5
			c1.1,4.3,3.8,8,7.5,10.2c3.4,2.1,4.6,6.4,2.9,9.9l-4.8,10.4c-3.6,7.7,2.1,16.6,10.6,16.6c1.4,0,2.7-0.2,3.9-0.6
			C113.1,177,109.6,169.8,112.6,163.3L112.6,163.3z"/>
		<g>
			<circle class="st6" cx="115.4" cy="92.5" r="43.4"/>
		</g>
		<g>
			<path class="st7" d="M83.8,92.5c0-21.9,16.3-40.1,37.5-43c-1.9-0.3-3.9-0.4-5.9-0.4c-23.9,0-43.4,19.5-43.4,43.4
				s19.5,43.4,43.4,43.4c2,0,4-0.1,5.9-0.4C100.2,132.5,83.8,114.4,83.8,92.5L83.8,92.5z"/>
		</g>
		<g>
			<circle class="st8" cx="115.4" cy="92.5" r="7.6"/>
		</g>
	</g>
	<path d="M193.2,58.4c-5.2-11.6-16.1-19.6-28.5-21.2c1.3-2,2.4-4,3.3-6.2c0.6-1.4-0.1-3.1-1.5-3.7c-1.4-0.6-3.1,0.1-3.7,1.5
		c-1.5,3.7-3.8,7-6.6,9.9c-2.5,2.5-5.4,4.5-8.5,6c-3.6-2.5-7.4-4.5-11.4-6.1l20.1-20.1c1.1-1.1,1.1-2.9,0-4c-1.1-1.1-2.9-1.1-4,0
		l-22.1,22.1c-0.2-0.1-0.4-0.1-0.6-0.2c-0.6-1.6-1.2-3.2-2-4.7c0.8-4.1,0.9-7.9,0.1-11.4c1.2-2,2.7-3.9,4.5-5.7
		c8.2-8.2,20.4-11,31.4-7.4c1,3.1,1.6,6.4,1.6,9.7c0,1.6,1.3,2.8,2.8,2.8h0c1.6,0,2.8-1.3,2.8-2.8c0-4.4-0.8-8.8-2.4-12.9
		c-0.3-0.8-0.9-1.3-1.6-1.6c-13.4-5.1-28.5-1.9-38.6,8.2c-1.1,1.1-2.1,2.2-3,3.4c-0.7-1.2-1.6-2.3-2.6-3.2c-5-5-12.6-6.8-20.9-5
		C89.9,0.1,75.8-1.4,62,1.4c-14.6,3-28.1,10.4-39.2,21.4S4.3,47.4,1.4,62c-2.8,13.9-1.3,27.9,4.3,39.6c-1.8,8.4,0.1,16,5,20.9
		c5,5,12.6,6.8,20.9,5c4.9,2.3,10.1,4,15.6,4.9c1.5,0.3,3-0.8,3.3-2.3c0.3-1.5-0.8-3-2.3-3.3c-5.3-0.9-10.3-2.5-15-4.8
		c-0.6-0.3-1.3-0.4-1.9-0.2c-6.8,1.6-12.9,0.4-16.6-3.3s-5-9.8-3.3-16.6c0.2-0.6,0.1-1.3-0.2-1.9C5.8,89.2,4.3,76.1,6.9,63.1
		c2.7-13.5,9.6-26.1,19.9-36.3S49.6,9.7,63.1,6.9c13-2.6,26.1-1.1,36.9,4.3c0.6,0.3,1.3,0.4,1.9,0.2c6.8-1.6,12.9-0.4,16.6,3.3
		c3.8,3.8,5,9.8,3.3,16.6c-0.2,0.6-0.1,1.3,0.2,1.9c0.3,0.6,0.6,1.2,0.8,1.8c-2.5-0.3-5-0.5-7.5-0.5c-31.4,0-56.9,25.5-56.9,56.9
		c0,13.1,4.5,25.2,11.9,34.8c-3.2,0.6-6.4,1.1-9.6,1.2c-1.6,0.1-2.8,1.4-2.7,3c0.1,1.5,1.3,2.7,2.8,2.7c0,0,0.1,0,0.1,0
		c4.6-0.2,9.1-0.9,13.5-2c8.6,8.8,20,14.9,32.7,16.7c0.4,1.2,0.4,2.5-0.2,3.8l-4.8,10.4c-2.1,4.5-1.7,9.7,0.9,13.9
		c2.7,4.2,7.2,6.7,12.2,6.7s9.5-2.5,12.2-6.7c2.7-4.2,3-9.4,0.9-13.9l-4.8-10.4c-0.6-1.2-0.6-2.6-0.2-3.8
		c10.9-1.6,21.1-6.3,29.5-13.6c10.3-9.1,17-21.5,18.8-35c0.2-1.6-0.9-3-2.4-3.2c-1.6-0.2-3,0.9-3.2,2.4
		c-1.7,12.2-7.7,23.4-16.9,31.5c-5.4,4.7-11.6,8.2-18.3,10.3c1.3-1.7,2.3-3.6,2.9-5.6c16.3-7.2,27.7-23.4,27.7-42.3
		c0-25.5-20.7-46.2-46.2-46.2S69.2,67,69.2,92.5c0,18.9,11.4,35.2,27.7,42.3c0.7,2,1.7,3.9,2.9,5.6c-20.7-6.6-35.7-26-35.7-48.9
		c0-28.3,23-51.3,51.3-51.3c12.7,0,24.9,4.7,34.4,13.2c9.4,8.5,15.3,20,16.6,32.5c0.2,1.6,1.6,2.7,3.1,2.5c1.6-0.2,2.7-1.6,2.5-3.1
		c-0.2-1.7-0.4-3.3-0.8-5c9.6-3.1,17.6-10.2,21.9-19.7C193.5,60,193.5,59.1,193.2,58.4L193.2,58.4z M122.7,140.5
		c-4.6,2.8-6.4,8.7-4.1,13.6l4.8,10.4c1.3,2.7,1.1,5.9-0.6,8.5c-1.6,2.6-4.4,4.1-7.4,4.1c-3,0-5.8-1.5-7.4-4.1
		c-1.6-2.6-1.8-5.7-0.6-8.5l4.8-10.4c2.3-4.9,0.6-10.8-4-13.6c-1.4-0.8-2.6-1.9-3.6-3.1c3.4,0.8,7,1.3,10.7,1.3
		c3.7,0,7.3-0.4,10.8-1.3C125.2,138.6,124,139.6,122.7,140.5L122.7,140.5z M118.3,132.9v-30.4c0.8-0.2,1.5-0.5,2.2-0.9L142,123
		C135.5,128.6,127.3,132.3,118.3,132.9L118.3,132.9z M146,119l-21.5-21.5c0.4-0.7,0.7-1.5,0.9-2.2h30.4
		C155.2,104.3,151.6,112.6,146,119L146,119z M155.9,89.6h-30.4c-0.2-0.8-0.5-1.5-0.9-2.2L146,65.9C151.6,72.3,155.2,80.6,155.9,89.6
		L155.9,89.6z M118.3,52c9,0.6,17.3,4.2,23.7,9.8l-21.5,21.5c-0.7-0.4-1.5-0.7-2.2-0.9L118.3,52z M120.2,92.5c0,2.6-2.1,4.7-4.7,4.7
		s-4.7-2.1-4.7-4.7s2.1-4.7,4.7-4.7C118,87.7,120.2,89.8,120.2,92.5z M112.6,52v30.4c-0.8,0.2-1.5,0.5-2.2,0.9L88.9,61.9
		C95.3,56.3,103.5,52.7,112.6,52z M84.8,65.9l21.5,21.5c-0.4,0.7-0.7,1.5-0.9,2.2H75C75.6,80.6,79.2,72.3,84.8,65.9L84.8,65.9z
		 M75,95.3h30.4c0.2,0.8,0.5,1.5,0.9,2.2L84.8,119C79.2,112.6,75.6,104.3,75,95.3L75,95.3z M88.9,123l21.5-21.5
		c0.7,0.4,1.5,0.7,2.2,0.9v30.4C103.5,132.3,95.3,128.6,88.9,123L88.9,123z M169.9,74.9c-1.3-4.4-3.2-8.6-5.6-12.5h10.1
		c1.6,0,2.8-1.3,2.8-2.8s-1.3-2.8-2.8-2.8h-14c-2.1-2.7-4.4-5.1-6.9-7.4c-0.3-0.3-0.6-0.6-1-0.8c2.7-1.6,5.3-3.5,7.6-5.8
		c0,0,0.1-0.1,0.1-0.1c11.5,0.1,22,6.7,27.2,17C183.8,66.9,177.4,72.3,169.9,74.9L169.9,74.9z"/>
</g>
</svg>
