<?xml version="1.0" encoding="utf-8"?>
<!-- Generator: Adobe Illustrator 25.0.0, SVG Export Plug-In . SVG Version: 6.00 Build 0)  -->
<svg version="1.1" id="Calque_1" xmlns:v="https://vecta.io/nano"
	 xmlns="http://www.w3.org/2000/svg" xmlns:xlink="http://www.w3.org/1999/xlink" x="0px" y="0px" viewBox="0 0 64 64"
	 style="enable-background:new 0 0 64 64;" xml:space="preserve">
<style type="text/css">
	.st0{fill:#09A76D;}
	.st1{fill:#02905D;}
	.st2{fill:#FAC600;}
	.st3{fill:#E8B800;}
	.st4{fill:#FEDF30;}
	.st5{fill:#FFF5C6;}
	.st6{fill:#FEF0AE;}
	.st7{fill:#FFFFFF;}
</style>
<g>
	<g>
		<path class="st0" d="M53,13.9c-0.1,0-0.2,0-0.3,0c-0.1,0.1-0.2,0.2-0.3,0.3c-1.1,1.1-2.3,2-3.6,2.5c3.3,2.6,5.8,6.3,6.8,10.7
			c3.4-0.9,6.1-3.3,7.5-6.6C61.3,16.8,57.5,13.9,53,13.9z"/>
		<path class="st1" d="M53,13.9c-0.1,0-0.2,0-0.3,0c-0.1,0.1-0.2,0.2-0.3,0.3c-1.1,1.1-2.3,2-3.6,2.5c0.4,0.3,0.7,0.6,1.1,0.9
			c0.9-0.2,1.8-0.4,2.8-0.4c4,0,7.4,2.2,9.4,5.5c0.4-0.6,0.8-1.3,1.1-2C61.3,16.8,57.5,13.9,53,13.9L53,13.9z"/>
	</g>
	<g>
		<path class="st0" d="M41.2,11.2c0.4,0.8,0.7,1.6,0.9,2.4c2.4,0.6,4.7,1.7,6.6,3.2c1.3-0.6,2.5-1.4,3.6-2.5c3.2-3.4,4-8.3,2.5-12.5
			c-4-1.6-8.6-0.7-11.8,2.7c-0.7,0.8-1.3,1.6-1.8,2.5C41.6,8.2,41.6,9.7,41.2,11.2z"/>
		<path class="st1" d="M41.2,11.2c0.4,0.8,0.7,1.6,0.9,2.4c0.1,0,0.2,0.1,0.3,0.1c0.3-2.4,1.4-4.7,3.1-6.6c2.7-2.8,6.4-3.9,9.8-3.2
			c-0.1-0.7-0.3-1.4-0.6-2.1c-4-1.6-8.6-0.7-11.8,2.7c-0.7,0.8-1.3,1.6-1.8,2.5C41.6,8.2,41.6,9.7,41.2,11.2L41.2,11.2z"/>
	</g>
	<path class="st2" d="M20.3,32.1c0-10.5,8-19,17.9-19c1.4,0,2.7,0.2,4,0.5c-0.3-0.8-0.6-1.6-0.9-2.4c0.6-2.6,0.2-5.1-1.3-6.8
		C38.4,2.8,36,2.4,33.5,3C25.8-1,15.5,1,8.2,8.7C0.9,16.4-1,27.3,2.9,35.5c-0.6,2.6-0.2,5.1,1.3,6.8c1.5,1.6,3.9,2.1,6.4,1.4
		c4.3,2.3,9.4,2.6,14.4,1.2C22.1,41.5,20.3,37,20.3,32.1L20.3,32.1z"/>
	<g>
		<g>
			<path class="st3" d="M9.4,43.6c-1.5-1.6-1.9-4.1-1.3-6.8c-3.8-8.1-1.9-19.1,5.3-26.8c5.4-5.7,12.5-8.3,18.9-7.6
				C24.8-0.8,15.1,1.4,8.2,8.7C0.9,16.4-1,27.3,2.9,35.5c-0.6,2.6-0.2,5.1,1.3,6.8c1.3,1.4,3.3,1.9,5.4,1.6
				C9.6,43.8,9.5,43.7,9.4,43.6z"/>
		</g>
	</g>
	<g>
		<path class="st4" d="M38.2,13.1c-9.9,0-17.9,8.5-17.9,19c0,9.7,6.9,17.7,15.8,18.8c-0.2-0.3-0.5-0.6-0.8-0.8
			c-1.2-0.8-2.1-2.1-2.5-3.6c1.7,0.7,3.5,1.1,5.3,1.1c1.9,0,3.7-0.4,5.3-1.1c-0.3,1.5-1.2,2.8-2.5,3.6c-0.3,0.2-0.6,0.5-0.8,0.8
			c8.9-1.1,15.8-9.1,15.8-18.8C56.1,21.6,48.1,13.1,38.2,13.1L38.2,13.1z"/>
		<path class="st5" d="M41.1,50.1c1.2-0.8,2.1-2.1,2.5-3.6c-1.7,0.7-3.5,1.1-5.3,1.1c-1.9,0-3.7-0.4-5.3-1.1
			c0.4,1.5,1.3,2.8,2.5,3.6c1.1,0.7,1.5,2.2,1,3.5l-1.6,3.7c-1.2,2.7,0.7,5.8,3.5,5.8c2.8,0,4.7-3.1,3.5-5.8l-1.6-3.7
			C39.5,52.3,40,50.8,41.1,50.1L41.1,50.1z"/>
		<path class="st6" d="M37.3,57.2l1.6-3.7c0.5-1.3,0.1-2.8-1-3.5c-1-0.6-1.8-1.6-2.2-2.7c-1-0.2-1.9-0.5-2.8-0.9
			c0.4,1.5,1.3,2.8,2.5,3.6c1.1,0.7,1.5,2.2,1,3.5l-1.6,3.7c-1.2,2.7,0.7,5.8,3.5,5.8c0.5,0,0.9-0.1,1.3-0.2
			C37.4,62,36.3,59.5,37.3,57.2L37.3,57.2z"/>
		<g>
			<ellipse class="st5" cx="38.2" cy="32.4" rx="14.3" ry="15.2"/>
		</g>
		<g>
			<path class="st6" d="M27.7,32.4c0-7.7,5.4-14,12.4-15c-0.6-0.1-1.3-0.1-1.9-0.1c-7.9,0-14.3,6.8-14.3,15.2s6.4,15.2,14.3,15.2
				c0.7,0,1.3,0,1.9-0.1C33.2,46.4,27.7,40.1,27.7,32.4L27.7,32.4z"/>
		</g>
		<g>
			<ellipse class="st7" cx="38.2" cy="32.4" rx="2.5" ry="2.7"/>
		</g>
	</g>
	<path d="M63.9,20.5c-1.7-4.1-5.3-6.9-9.4-7.4c0.4-0.7,0.8-1.4,1.1-2.2c0.2-0.5,0-1.1-0.5-1.3c-0.5-0.2-1,0-1.2,0.5
		c-0.5,1.3-1.2,2.5-2.2,3.5c-0.8,0.9-1.8,1.6-2.8,2.1c-1.2-0.9-2.5-1.6-3.8-2.1l6.6-7c0.4-0.4,0.4-1,0-1.4c-0.4-0.4-1-0.4-1.3,0
		l-7.3,7.7c-0.1,0-0.1,0-0.2-0.1c-0.2-0.6-0.4-1.1-0.6-1.6c0.3-1.4,0.3-2.8,0-4c0.4-0.7,0.9-1.4,1.5-2c2.7-2.9,6.8-3.9,10.4-2.6
		c0.3,1.1,0.5,2.2,0.5,3.4c0,0.5,0.4,1,0.9,1h0c0.5,0,0.9-0.4,0.9-1c0-1.6-0.3-3.1-0.8-4.5c-0.1-0.3-0.3-0.5-0.5-0.6
		C50.8-1,45.8,0.2,42.4,3.7c-0.4,0.4-0.7,0.8-1,1.2c-0.2-0.4-0.5-0.8-0.9-1.1C38.9,2,36.4,1.4,33.6,2c-3.9-2-8.5-2.5-13.1-1.5
		c-4.8,1-9.3,3.6-13,7.5s-6.1,8.6-7.1,13.7c-0.9,4.9-0.4,9.8,1.4,13.9c-0.6,2.9,0,5.6,1.7,7.3c1.6,1.7,4.2,2.4,6.9,1.8
		c1.6,0.8,3.4,1.4,5.2,1.7c0.5,0.1,1-0.3,1.1-0.8c0.1-0.5-0.3-1.1-0.8-1.1c-1.8-0.3-3.4-0.9-4.9-1.7c-0.2-0.1-0.4-0.1-0.6-0.1
		c-2.3,0.6-4.3,0.2-5.5-1.2c-1.2-1.3-1.6-3.4-1.1-5.8c0.1-0.2,0-0.5-0.1-0.7c-1.8-3.8-2.3-8.4-1.4-12.9C3.2,17.4,5.5,13,8.9,9.4
		s7.6-6,12-7c4.3-0.9,8.6-0.4,12.2,1.5C33.3,4,33.5,4.1,33.7,4C36,3.4,38,3.9,39.2,5.2s1.6,3.4,1.1,5.8c-0.1,0.2,0,0.5,0.1,0.7
		c0.1,0.2,0.2,0.4,0.3,0.6c-0.8-0.1-1.7-0.2-2.5-0.2c-10.4,0-18.8,8.9-18.8,19.9c0,4.6,1.5,8.8,4,12.2c-1,0.2-2.1,0.4-3.2,0.4
		c-0.5,0-0.9,0.5-0.9,1c0,0.5,0.4,0.9,0.9,0.9c0,0,0,0,0,0c1.5-0.1,3-0.3,4.5-0.7c2.8,3.1,6.6,5.2,10.8,5.8c0.1,0.4,0.1,0.9-0.1,1.3
		l-1.6,3.7c-0.7,1.6-0.6,3.4,0.3,4.9c0.9,1.5,2.4,2.3,4,2.3s3.2-0.9,4-2.3c0.9-1.5,1-3.3,0.3-4.9l-1.6-3.7c-0.2-0.4-0.2-0.9-0.1-1.3
		c3.6-0.5,7-2.2,9.8-4.8c3.4-3.2,5.6-7.5,6.2-12.3c0.1-0.5-0.3-1-0.8-1.1c-0.5-0.1-1,0.3-1.1,0.8c-0.5,4.3-2.5,8.2-5.6,11
		c-1.8,1.7-3.8,2.9-6,3.6c0.4-0.6,0.7-1.3,1-2c5.4-2.5,9.2-8.2,9.2-14.8c0-8.9-6.9-16.2-15.3-16.2s-15.3,7.3-15.3,16.2
		c0,6.6,3.8,12.3,9.2,14.8c0.2,0.7,0.5,1.4,1,2c-6.8-2.3-11.8-9.1-11.8-17.1c0-9.9,7.6-18,17-18c4.2,0,8.2,1.6,11.4,4.6
		c3.1,3,5.1,7,5.5,11.4c0.1,0.5,0.5,0.9,1,0.9c0.5-0.1,0.9-0.5,0.8-1.1c-0.1-0.6-0.1-1.2-0.3-1.7c3.2-1.1,5.8-3.6,7.2-6.9
		C64,21,64,20.7,63.9,20.5L63.9,20.5z M40.6,49.2c-1.5,1-2.1,3-1.4,4.8l1.6,3.7c0.4,1,0.4,2.1-0.2,3c-0.5,0.9-1.5,1.4-2.5,1.4
		s-1.9-0.5-2.5-1.4s-0.6-2-0.2-3l1.6-3.7c0.8-1.7,0.2-3.8-1.3-4.7c-0.5-0.3-0.9-0.7-1.2-1.1c1.1,0.3,2.3,0.4,3.6,0.4
		c1.2,0,2.4-0.2,3.6-0.4C41.4,48.5,41,48.9,40.6,49.2L40.6,49.2z M39.1,46.5V35.9c0.3-0.1,0.5-0.2,0.7-0.3l7.1,7.5
		C44.9,45.1,42.1,46.3,39.1,46.5L39.1,46.5z M48.3,41.7l-7.1-7.5c0.1-0.2,0.2-0.5,0.3-0.8h10.1C51.4,36.5,50.2,39.4,48.3,41.7
		L48.3,41.7z M51.6,31.4H41.5c-0.1-0.3-0.2-0.5-0.3-0.8l7.1-7.5C50.2,25.3,51.4,28.2,51.6,31.4L51.6,31.4z M39.1,18.2
		c3,0.2,5.7,1.5,7.9,3.5l-7.1,7.5c-0.2-0.1-0.5-0.2-0.7-0.3L39.1,18.2z M39.8,32.4c0,0.9-0.7,1.7-1.6,1.7s-1.6-0.7-1.6-1.7
		c0-0.9,0.7-1.7,1.6-1.7C39.1,30.7,39.8,31.5,39.8,32.4z M37.3,18.2v10.7c-0.3,0.1-0.5,0.2-0.7,0.3l-7.1-7.5
		C31.5,19.7,34.3,18.4,37.3,18.2z M28.1,23.1l7.1,7.5c-0.1,0.2-0.2,0.5-0.3,0.8H24.8C25,28.2,26.2,25.3,28.1,23.1L28.1,23.1z
		 M24.8,33.4h10.1c0.1,0.3,0.2,0.5,0.3,0.8l-7.1,7.5C26.2,39.4,25,36.5,24.8,33.4L24.8,33.4z M29.4,43.1l7.1-7.5
		c0.2,0.1,0.5,0.2,0.7,0.3v10.7C34.3,46.3,31.5,45.1,29.4,43.1L29.4,43.1z M56.2,26.2c-0.4-1.5-1.1-3-1.8-4.4h3.3
		c0.5,0,0.9-0.4,0.9-1c0-0.5-0.4-1-0.9-1h-4.6c-0.7-0.9-1.4-1.8-2.3-2.6c-0.1-0.1-0.2-0.2-0.3-0.3c0.9-0.5,1.7-1.2,2.5-2
		c0,0,0,0,0,0c3.8,0,7.3,2.3,9,6C60.8,23.4,58.7,25.3,56.2,26.2L56.2,26.2z"/>
</g>
</svg>
