<svg id="Capa_1" enable-background="new 0 0 512.129 512.129" height="512" viewBox="0 0 512.129 512.129" width="512" xmlns="http://www.w3.org/2000/svg"><g><g><path d="m487.504 132.128c-4.651-11.054-4.307-23.661 1.325-34.249 11.965-22.492 9.664-49.596-7.66-66.919-17.324-17.324-44.427-19.625-66.919-7.66-10.588 5.632-23.195 5.976-34.249 1.325-88.898-37.405-204.005-12.857-286.119 69.257s-106.662 197.221-69.257 286.118c4.651 11.054 4.307 23.662-1.325 34.25-11.965 22.492-9.664 49.596 7.66 66.919 17.324 17.324 44.427 19.625 66.919 7.66 10.588-5.632 23.195-5.976 34.249-1.325 88.897 37.404 204.004 12.857 286.118-69.257s106.663-197.221 69.258-286.119z" fill="#f8ea69"/><path d="m487.504 132.128c-4.651-11.054-4.307-23.661 1.325-34.249 11.965-22.492 9.664-49.596-7.66-66.919-5.313-5.313-11.548-9.206-18.285-11.715 5.672 15.231 4.24 33.04-4.055 48.634-5.632 10.588-5.976 23.195-1.325 34.249 37.405 88.897 12.857 204.004-69.257 286.119s-197.221 106.662-286.118 69.257c-11.054-4.651-23.661-4.308-34.249 1.325-15.594 8.295-33.403 9.727-48.634 4.055 2.509 6.737 6.402 12.973 11.715 18.285 17.324 17.324 44.427 19.625 66.919 7.66 10.588-5.632 23.195-5.976 34.249-1.325 88.897 37.404 204.004 12.857 286.118-69.257s106.662-197.221 69.257-286.119z" fill="#f8ad3e"/><g><ellipse cx="185.934" cy="374.962" fill="#ffa1ac" rx="49.319" ry="39.275" transform="matrix(.707 -.707 .707 .707 -210.68 241.299)"/><ellipse cx="374.962" cy="185.934" fill="#ffa1ac" rx="49.319" ry="39.275" transform="matrix(.707 -.707 .707 .707 -21.651 319.597)"/><ellipse cx="259.11" cy="259.11" fill="#423e4f" rx="26.18" ry="29.295" transform="matrix(.707 -.707 .707 .707 -107.327 259.112)"/></g></g><g><path d="m8.897 266.385c.344.046.685.069 1.021.069 3.693 0 6.91-2.728 7.422-6.489 8.025-58.922 37.094-116.022 81.853-160.781 77.708-77.706 189.39-104.891 277.907-67.646 13.357 5.62 28.184 5.031 40.68-1.616 20.206-10.749 43.552-8.2 58.094 6.341 14.542 14.542 17.09 37.888 6.342 58.094-6.647 12.496-7.236 27.324-1.617 40.68 10.538 25.045 16.072 52.308 16.448 81.033.054 4.142 3.474 7.453 7.598 7.401 4.142-.054 7.456-3.456 7.401-7.598-.401-30.666-6.33-59.82-17.621-86.654-3.863-9.182-3.487-19.321 1.034-27.818 13.867-26.068 10.258-56.508-8.979-75.745s-49.679-22.845-75.745-8.978c-8.498 4.52-18.637 4.896-27.818 1.033-45.677-19.219-97.622-22.877-150.219-10.58-53.504 12.509-103.336 40.673-144.111 81.448-47.063 47.063-77.645 107.211-86.109 169.363-.559 4.104 2.315 7.884 6.419 8.443z"/><path d="m16.686 410.728c-13.867 26.068-10.258 56.507 8.979 75.744s49.677 22.845 75.745 8.979c8.498-4.52 18.636-4.897 27.818-1.033 27.993 11.778 58.332 17.713 89.741 17.711 19.841 0 40.115-2.37 60.478-7.13 53.504-12.509 103.336-40.673 144.111-81.448 49.218-49.218 80.132-112.112 87.048-177.098.438-4.119-2.545-7.813-6.665-8.251-4.108-.438-7.813 2.545-8.251 6.665-6.554 61.586-35.938 121.277-82.738 168.078-77.707 77.707-189.389 104.892-277.907 67.648-13.355-5.62-28.183-5.031-40.68 1.616-20.206 10.749-43.552 8.2-58.094-6.342s-17.09-37.888-6.342-58.093c6.647-12.496 7.236-27.323 1.617-40.68-11.429-27.163-16.957-56.814-16.429-88.129.07-4.142-3.231-7.556-7.373-7.625-.043 0-.086-.001-.129-.001-4.083 0-7.427 3.275-7.497 7.374-.563 33.411 5.358 65.104 17.601 94.199 3.864 9.179 3.488 19.318-1.033 27.816z"/><path d="m233.1 233.092c-13.132 13.132-12.144 35.487 2.203 49.833 7.59 7.59 17.419 11.44 26.941 11.44 30.213 0 43.455-36.306 20.689-59.071-14.346-14.346-36.701-15.335-49.833-2.202zm41.43 41.429c-7.283 7.283-20.122 6.295-28.621-2.203-13.132-13.131-6.948-33.497 10.09-33.497 5.657 0 11.65 2.402 16.328 7.08 8.498 8.498 9.486 21.337 2.203 28.62z"/><path d="m186.919 306.521c2.929 2.929 7.678 2.928 10.606 0 2.929-2.929 2.929-7.678 0-10.607-11.506-11.506-30.131-11.508-41.639 0-11.48 11.479-11.48 30.159 0 41.639 2.927 2.928 7.677 2.93 10.606 0 2.929-2.929 2.929-7.678 0-10.607-5.631-5.631-5.631-14.794 0-20.426 5.645-5.643 14.782-5.644 20.427.001z"/><path d="m325.619 167.822c2.929 2.929 7.678 2.929 10.606 0 2.929-2.929 2.929-7.678 0-10.607-11.48-11.479-30.16-11.479-41.639 0-11.506 11.506-11.508 30.131 0 41.639 2.928 2.929 7.677 2.929 10.606 0s2.929-7.678 0-10.606c-5.643-5.643-5.645-14.781 0-20.426 5.632-5.632 14.795-5.632 20.427 0z"/></g></g></svg>