<?xml version="1.0" encoding="utf-8"?>
<!-- Generator: Adobe Illustrator 25.0.0, SVG Export Plug-In . SVG Version: 6.00 Build 0)  -->
<svg version="1.1" id="Calque_1" xmlns:v="https://vecta.io/nano"
	 xmlns="http://www.w3.org/2000/svg" xmlns:xlink="http://www.w3.org/1999/xlink" x="0px" y="0px" viewBox="0 0 202 134"
	 style="enable-background:new 0 0 202 134;" xml:space="preserve">
<style type="text/css">
	.st0{fill:#F8EA69;}
	.st1{fill:#F8AD3E;}
	.st2{fill:#FFA1AC;}
	.st3{fill:#423E4F;}
</style>
<g>
	<g>
		<path class="st0" d="M133.2,127.3c2.9-1.2,6.2-1.1,8.9,0.3c5.9,3.1,12.9,2.5,17.4-2s5.1-11.6,2-17.4c-1.5-2.8-1.6-6-0.3-8.9
			c9.8-23.1,3.4-53-18-74.4S91.9-2.9,68.8,6.9c-2.9,1.2-6.2,1.1-8.9-0.3C54,3.5,47,4.1,42.5,8.6s-5.1,11.6-2,17.4
			c1.5,2.8,1.6,6,0.3,8.9c-9.7,23.1-3.3,53.1,18,74.4S110.1,137.1,133.2,127.3L133.2,127.3z"/>
		<path class="st1" d="M133.2,127.3c2.9-1.2,6.2-1.1,8.9,0.3c5.9,3.1,12.9,2.5,17.4-2c1.4-1.4,2.4-3,3-4.8c-4,1.5-8.6,1.1-12.7-1.1
			c-2.8-1.5-6-1.6-8.9-0.3c-23.1,9.7-53.1,3.3-74.4-18S38.7,50.1,48.5,27c1.2-2.9,1.1-6.2-0.3-8.9C46,14,45.7,9.4,47.1,5.4
			c-1.8,0.7-3.4,1.7-4.8,3c-4.5,4.5-5.1,11.6-2,17.4c1.5,2.8,1.6,6,0.3,8.9c-9.7,23.1-3.3,53.1,18,74.4S110.1,137.1,133.2,127.3
			L133.2,127.3z"/>
		<g>
			
				<ellipse transform="matrix(0.7071 -0.7071 0.7071 0.7071 -13.9856 63.8681)" class="st2" cx="70.1" cy="48.8" rx="10.2" ry="12.8"/>
			
				<ellipse transform="matrix(0.7071 -0.7071 0.7071 0.7071 -34.3886 112.9632)" class="st2" cx="119.2" cy="98" rx="10.2" ry="12.8"/>
			
				<ellipse transform="matrix(0.7071 -0.7071 0.7071 0.7071 -18.6374 90.7155)" class="st3" cx="100.2" cy="67.9" rx="7.6" ry="6.8"/>
		</g>
	</g>
	<g>
		<path d="M98.3,2.8c0,0.1,0,0.2,0,0.3c0,1,0.7,1.8,1.7,1.9c15.3,2.1,30.2,9.7,41.8,21.3c20.2,20.2,27.3,49.3,17.6,72.3
			c-1.5,3.5-1.3,7.3,0.4,10.6c2.8,5.3,2.1,11.3-1.6,15.1c-3.8,3.8-9.9,4.4-15.1,1.7c-3.3-1.7-7.1-1.9-10.6-0.4
			c-6.5,2.7-13.6,4.2-21.1,4.3c-1.1,0-1.9,0.9-1.9,2s0.9,1.9,2,1.9c8-0.1,15.6-1.6,22.5-4.6c2.4-1,5-0.9,7.2,0.3
			c6.8,3.6,14.7,2.7,19.7-2.3s5.9-12.9,2.3-19.7c-1.2-2.2-1.3-4.8-0.3-7.2c5-11.9,6-25.4,2.8-39.1c-3.2-14.1-10.5-27-21.1-37.7
			c-12.3-12.2-27.9-20.2-44.1-22.4C99.4,1,98.5,1.7,98.3,2.8L98.3,2.8z"/>
		<path d="M60.8,4.8C54,1.2,46.1,2.1,41.1,7.1S35.2,20,38.8,26.8c1.2,2.2,1.3,4.8,0.3,7.2c-3.1,7.3-4.6,15.2-4.6,23.3
			c0,5.2,0.6,10.4,1.9,15.7c3.3,13.9,10.6,26.9,21.2,37.5c12.8,12.8,29.2,20.8,46.1,22.6c1.1,0.1,2-0.7,2.1-1.7
			c0.1-1.1-0.7-2-1.7-2.1c-16-1.7-31.6-9.4-43.7-21.5C40.2,87.6,33.1,58.5,42.8,35.5c1.5-3.5,1.3-7.3-0.4-10.6
			c-2.8-5.3-2.1-11.3,1.7-15.1S54,5.4,59.2,8.1c3.3,1.7,7.1,1.9,10.6,0.4c7.1-3,14.8-4.4,22.9-4.3c1.1,0,2-0.8,2-1.9l0,0
			c0-1.1-0.9-1.9-1.9-2c-8.7-0.1-16.9,1.4-24.5,4.6C65.6,6.1,63,6,60.8,4.8L60.8,4.8z"/>
		<path d="M107,61.1c-3.4-3.4-9.2-3.2-13,0.6c-2,2-3,4.5-3,7c0,7.9,9.4,11.3,15.4,5.4C110.1,70.4,110.4,64.6,107,61.1z M96.2,71.9
			c-1.9-1.9-1.6-5.2,0.6-7.4c3.4-3.4,8.7-1.8,8.7,2.6c0,1.5-0.6,3-1.8,4.2C101.4,73.6,98.1,73.8,96.2,71.9z"/>
		<path d="M87.9,49.1c-0.8,0.8-0.8,2,0,2.8s2,0.8,2.8,0c3-3,3-7.8,0-10.8s-7.8-3-10.8,0c-0.8,0.8-0.8,2,0,2.8s2,0.8,2.8,0
			c1.5-1.5,3.8-1.5,5.3,0C89.3,45.3,89.3,47.7,87.9,49.1L87.9,49.1z"/>
		<path d="M124,85.2c-0.8,0.8-0.8,2,0,2.8c0.8,0.8,2,0.8,2.8,0c3-3,3-7.8,0-10.8s-7.8-3-10.8,0c-0.8,0.8-0.8,2,0,2.8
			c0.8,0.8,2,0.8,2.8,0c1.5-1.5,3.8-1.5,5.3,0C125.4,81.4,125.4,83.8,124,85.2L124,85.2z"/>
	</g>
</g>
</svg>
