<?xml version="1.0" encoding="utf-8"?>
<!-- Generator: Adobe Illustrator 25.0.0, SVG Export Plug-In . SVG Version: 6.00 Build 0)  -->
<svg version="1.1" id="Calque_1" xmlns:v="https://vecta.io/nano"
	 xmlns="http://www.w3.org/2000/svg" xmlns:xlink="http://www.w3.org/1999/xlink" x="0px" y="0px" viewBox="0 0 202 134"
	 style="enable-background:new 0 0 202 134;" xml:space="preserve">
<style type="text/css">
	.st0{fill:#F8EA69;}
	.st1{fill:#F8AD3E;}
	.st2{fill:#FFA1AC;}
	.st3{fill:#423E4F;}
</style>
<g>
	<g>
		<path class="st0" d="M161,34.8c-1.2-2.9-1.1-6.2,0.3-8.9c3.1-5.9,2.5-12.9-2-17.4c-4.5-4.5-11.6-5.1-17.4-2
			c-2.8,1.5-6,1.6-8.9,0.3C109.9-3,80,3.4,58.6,24.8s-27.8,51.3-18,74.4c1.2,2.9,1.1,6.2-0.3,8.9c-3.1,5.9-2.5,12.9,2,17.4
			c4.5,4.5,11.6,5.1,17.4,2c2.8-1.5,6-1.6,8.9-0.3c23.1,9.7,53.1,3.3,74.4-18S170.8,57.9,161,34.8L161,34.8z"/>
		<path class="st1" d="M161,34.8c-1.2-2.9-1.1-6.2,0.3-8.9c3.1-5.9,2.5-12.9-2-17.4c-1.4-1.4-3-2.4-4.8-3c1.5,4,1.1,8.6-1.1,12.7
			c-1.5,2.8-1.6,6-0.3,8.9c9.7,23.1,3.3,53.1-18,74.4s-51.3,27.8-74.4,18c-2.9-1.2-6.2-1.1-8.9,0.3c-4.1,2.2-8.7,2.5-12.7,1.1
			c0.7,1.8,1.7,3.4,3,4.8c4.5,4.5,11.6,5.1,17.4,2c2.8-1.5,6-1.6,8.9-0.3c23.1,9.7,53.1,3.3,74.4-18S170.8,57.9,161,34.8L161,34.8z"
			/>
		<g>
			
				<ellipse transform="matrix(0.7071 -0.7071 0.7071 0.7071 -45.0677 87.0586)" class="st2" cx="82.6" cy="97.9" rx="12.8" ry="10.2"/>
			
				<ellipse transform="matrix(0.7071 -0.7071 0.7071 0.7071 4.1084 107.4343)" class="st2" cx="131.7" cy="48.8" rx="12.8" ry="10.2"/>
			<ellipse transform="matrix(0.7071 -0.7071 0.7071 0.7071 -18.18 91.6955)" class="st3" cx="101.6" cy="67.8" rx="6.8" ry="7.6"/>
		</g>
	</g>
	<g>
		<path d="M36.5,69.7c0.1,0,0.2,0,0.3,0c1,0,1.8-0.7,1.9-1.7c2.1-15.3,9.7-30.2,21.3-41.8C80.2,6,109.3-1.1,132.3,8.6
			c3.5,1.5,7.3,1.3,10.6-0.4c5.3-2.8,11.3-2.1,15.1,1.6c3.8,3.8,4.4,9.9,1.7,15.1c-1.7,3.3-1.9,7.1-0.4,10.6
			c2.7,6.5,4.2,13.6,4.3,21.1c0,1.1,0.9,1.9,2,1.9c1.1,0,1.9-0.9,1.9-2c-0.1-8-1.6-15.6-4.6-22.5c-1-2.4-0.9-5,0.3-7.2
			c3.6-6.8,2.7-14.7-2.3-19.7c-5-5-12.9-5.9-19.7-2.3c-2.2,1.2-4.8,1.3-7.2,0.3c-11.9-5-25.4-6-39.1-2.8
			C80.8,5.5,67.9,12.8,57.2,23.4C45,35.7,37,51.3,34.8,67.5C34.7,68.6,35.4,69.5,36.5,69.7L36.5,69.7z"/>
		<path d="M38.5,107.2c-3.6,6.8-2.7,14.7,2.3,19.7c5,5,12.9,5.9,19.7,2.3c2.2-1.2,4.8-1.3,7.2-0.3c7.3,3.1,15.2,4.6,23.3,4.6
			c5.2,0,10.4-0.6,15.7-1.9c13.9-3.3,26.9-10.6,37.5-21.2c12.8-12.8,20.8-29.2,22.6-46.1c0.1-1.1-0.7-2-1.7-2.1
			c-1.1-0.1-2,0.7-2.1,1.7c-1.7,16-9.4,31.6-21.5,43.7c-20.2,20.2-49.3,27.3-72.3,17.6c-3.5-1.5-7.3-1.3-10.6,0.4
			c-5.3,2.8-11.3,2.1-15.1-1.7s-4.4-9.9-1.7-15.1c1.7-3.3,1.9-7.1,0.4-10.6c-3-7.1-4.4-14.8-4.3-22.9c0-1.1-0.8-2-1.9-2c0,0,0,0,0,0
			c-1.1,0-1.9,0.9-2,1.9c-0.1,8.7,1.4,16.9,4.6,24.5C39.8,102.4,39.7,105,38.5,107.2L38.5,107.2z"/>
		<path d="M94.8,61c-3.4,3.4-3.2,9.2,0.6,13c2,2,4.5,3,7,3c7.9,0,11.3-9.4,5.4-15.4C104.1,57.9,98.3,57.6,94.8,61z M105.6,71.8
			c-1.9,1.9-5.2,1.6-7.4-0.6c-3.4-3.4-1.8-8.7,2.6-8.7c1.5,0,3,0.6,4.2,1.8C107.3,66.6,107.5,69.9,105.6,71.8z"/>
		<path d="M82.8,80.1c0.8,0.8,2,0.8,2.8,0c0.8-0.8,0.8-2,0-2.8c-3-3-7.8-3-10.8,0c-3,3-3,7.8,0,10.8c0.8,0.8,2,0.8,2.8,0
			c0.8-0.8,0.8-2,0-2.8c-1.5-1.5-1.5-3.8,0-5.3C79,78.7,81.4,78.7,82.8,80.1L82.8,80.1z"/>
		<path d="M118.9,44c0.8,0.8,2,0.8,2.8,0c0.8-0.8,0.8-2,0-2.8c-3-3-7.8-3-10.8,0c-3,3-3,7.8,0,10.8c0.8,0.8,2,0.8,2.8,0
			c0.8-0.8,0.8-2,0-2.8c-1.5-1.5-1.5-3.8,0-5.3C115.1,42.6,117.5,42.6,118.9,44L118.9,44z"/>
	</g>
</g>
</svg>
